PathFileType	4	(X/Y/Z)	E:\Qualisys_Data\Carbon_Farble_Plate\Data\Amateur_Runner\S2\T3\S2T3V11_c3d.trc
DataRate	CameraRate	NumFrames	NumMarkers	Units	OrigDataRate	OrigDataStartFrame	OrigNumFrames
200.000000	200.000000	4	39	mm	200.000000	162	324
Frame#	Time	LSHO			RSHO			LICST			RICST			LASIS			LHEEL			RASIS			LTROC			RTROC			SACR			LTH1			LSK4			LTH2			LTH3			RHM5			LSK2			LTH4			RTH1			LTOE			RTH2			RTH3			RTH4			LLEP			RLEP			LSK1			LSK3			RSK1			LHM5			RSK2			LFT1			RSK3			RSK4			LLME			RLME			RTOE			RHEEL			RFT1			RFT2			LFT2			
		X1	Y1	Z1	X2	Y2	Z2	X3	Y3	Z3	X4	Y4	Z4	X5	Y5	Z5	X6	Y6	Z6	X7	Y7	Z7	X8	Y8	Z8	X9	Y9	Z9	X10	Y10	Z10	X11	Y11	Z11	X12	Y12	Z12	X13	Y13	Z13	X14	Y14	Z14	X15	Y15	Z15	X16	Y16	Z16	X17	Y17	Z17	X18	Y18	Z18	X19	Y19	Z19	X20	Y20	Z20	X21	Y21	Z21	X22	Y22	Z22	X23	Y23	Z23	X24	Y24	Z24	X25	Y25	Z25	X26	Y26	Z26	X27	Y27	Z27	X28	Y28	Z28	X29	Y29	Z29	X30	Y30	Z30	X31	Y31	Z31	X32	Y32	Z32	X33	Y33	Z33	X34	Y34	Z34	X35	Y35	Z35	X36	Y36	Z36	X37	Y37	Z37	X38	Y38	Z38	X39	Y39	Z39	

163	0.81	58.92414093017578	1484.79248046875	-485.4615173339844	3.963156938552856	1461.270141601562	-181.9286041259766	-45.09586334228516	1032.95458984375	-488.8621520996094	-40.10811233520508	1014.007141113281	-192.0830078125	4.202106952667236	976.8897094726562	-477.2434692382812	-570.7411499023438	420.6628723144531	-402.4401245117188	14.00380992889404	965.4034423828124	-222.7962646484375	-142.5130004882812	930.9298706054688	-497.0287780761719	-121.3888168334961	907.1343383789062	-184.2814025878906	-137.7488098144531	1071.080810546875	-342.6153259277344	-99.65956115722656	673.05615234375	-514.5553588867188	-430.9247131347656	489.2882995605469	-490.524169921875	-178.1436920166016	698.53955078125	-516.3097534179688	-132.9741363525391	575.41064453125	-507.0294189453125	271.0330505371094	134.493408203125	-213.8156890869141	-343.04248046875	533.2418823242188	-509.5234985351562	-212.1946411132812	604.3182983398438	-498.1161499023438	81.73052215576172	666.5118408203125	-176.0429382324219	-584.698486328125	177.9478454589844	-464.9715270996094	4.841821670532227	642.032470703125	-173.2005920410156	107.1849594116211	574.3585205078125	-213.8916778564453	29.86170959472656	553.0376586914062	-206.1357879638672	-201.8731994628906	550.369873046875	-508.0444946289062	72.39778900146484	531.7819213867188	-204.9708251953125	-309.3327941894531	461.5131530761719	-516.0314331054688	-399.644775390625	419.1641235351562	-503.7528686523438	128.3661041259766	422.1742858886719	-207.2173156738281	-614.73388671875	248.5854187011719	-501.751708984375	50.59216690063477	407.8238830566406	-192.4910736083984	-590.412353515625	403.7715148925781	-369.3793029785156	144.8796844482422	321.4330444335938	-218.8085174560547	66.96601104736328	310.8864440917969	-206.7795867919922	-567.9195556640625	373.4010925292969	-466.2750549316406	142.1058502197266	128.7575836181641	-243.6748046875	324.7747497558594	178.1327972412109	-267.6211242675781	91.92870330810548	87.13545227050781	-302.6679382324219	115.797607421875	69.90237426757812	-331.8412780761719	101.2602233886719	61.22348785400391	-283.7700500488281	-605.3104858398438	420.2347717285156	-417.3283081054688
164	0.815	75.49280548095703	1480.78564453125	-484.7681579589844	20.08883094787598	1457.042846679688	-180.9158630371094	-29.59939384460449	1029.294555664062	-488.403564453125	-25.6998348236084	1010.277221679688	-191.39697265625	20.15469741821289	973.6365966796876	-476.3066101074219	-551.5420532226562	425.7400512695312	-401.8321228027344	29.0215950012207	962.4102783203124	-221.3416748046875	-125.9921951293945	926.7269287109376	-496.9490966796875	-106.5319442749023	903.1226196289062	-184.3926696777344	-122.3170394897461	1066.977172851562	-342.2088012695312	-80.5687026977539	668.9735107421875	-515.729248046875	-409.9224853515625	489.5659790039062	-492.0941772460938	-159.4627838134766	693.26025390625	-517.5253295898438	-112.5667724609375	570.998046875	-508.6012573242188	281.4923095703125	130.0368194580078	-215.0652160644531	-320.9550170898438	530.5026245117188	-510.7117309570312	-191.9873657226562	599.0526733398438	-499.2789611816406	98.39561462402344	664.0964965820312	-177.4811706542969	-571.9900512695312	183.812744140625	-465.5154418945312	21.70219230651855	639.8494873046875	-174.7788238525391	124.006217956543	572.5023193359375	-215.6083984375	46.61246490478516	550.6790771484375	-207.4118804931641	-181.5169219970703	545.07275390625	-509.4566650390625	89.53121185302734	529.8395385742188	-205.8342132568359	-289.6219177246094	457.8511657714844	-516.2716674804688	-381.0336303710938	418.0428466796875	-503.6834106445312	143.3024291992188	418.1777648925781	-208.2857055664062	-600.1567993164062	255.6830444335938	-502.2964782714844	65.79180145263672	405.3495483398438	-193.5951080322266	-571.3421630859375	409.0088806152344	-368.4574584960938	158.5169067382812	317.3210144042969	-220.5299682617188	80.6017074584961	307.9035034179688	-208.0470733642578	-550.80517578125	378.431396484375	-465.5048522949219	152.8040924072266	125.2717056274414	-245.5886840820312	336.0415954589844	173.1385040283203	-268.0811462402344	102.8851928710938	83.80876922607422	-305.0870971679688	127.0449066162109	66.82329559326172	-333.9591064453125	111.5514068603516	58.38739395141602	-285.0140075683594	-586.0256958007812	426.4390869140625	-416.9485473632812
165	0.82	92.17864990234376	1476.533325195312	-484.023681640625	36.3880500793457	1452.7216796875	-179.9188537597656	-14.01611709594727	1025.7958984375	-488.1289367675781	-11.50972366333008	1006.750732421875	-190.6952972412109	35.71652603149414	970.1221923828124	-475.561767578125	-531.948974609375	430.4608154296875	-401.2429809570312	43.76137542724609	959.2302856445312	-220.3392333984375	-109.4239654541016	922.60693359375	-496.9968872070312	-91.74136352539062	898.6192626953125	-184.2233276367188	-106.9046401977539	1063.702392578125	-341.7291870117188	-61.51564407348633	664.5859375	-516.7969970703125	-388.6588439941406	488.3246459960938	-492.6170959472656	-140.9129028320312	687.43310546875	-518.2801513671875	-92.18700408935548	565.9080200195312	-509.7632446289062	291.3025817871094	124.8718032836914	-215.9983978271484	-298.9967956542969	527.74658203125	-511.7684020996094	-172.8443450927734	592.7217407226562	-500.4031982421875	114.751220703125	662.0841064453125	-178.7507781982422	-558.9360961914062	189.6790771484375	-466.3722534179688	37.98343658447266	637.4691162109375	-176.5643920898438	140.9010162353516	570.7571411132812	-217.0702972412109	63.75946426391602	548.6903686523438	-207.7302856445312	-160.3773193359375	539.30322265625	-510.7226257324219	105.7980728149414	527.2112426757812	-207.0389556884766	-269.4162902832031	454.4794616699219	-517.08056640625	-362.0914001464844	416.5777587890625	-504.0064392089844	158.3893737792969	413.9966125488281	-209.3148040771484	-585.22705078125	262.6482543945312	-502.5388793945312	80.00675201416016	402.2213439941406	-194.9847564697266	-552.0792236328125	414.4465942382812	-367.7826538085938	171.8028717041016	312.97802734375	-221.4936370849609	93.30309295654295	304.9304809570312	-209.5123291015625	-532.5219116210938	383.3676147460938	-465.040283203125	162.8828735351562	120.9703369140625	-247.4121551513672	346.6669921875	167.4783477783203	-268.8095092773438	112.6568984985352	80.53843688964844	-307.1094360351562	136.9404296875	63.21853637695312	-336.5313720703125	121.0611877441406	54.34987258911133	-287.1815795898438	-566.0675659179688	432.3811645507812	-416.2047424316406
166	0.825	108.7236862182617	1472.09619140625	-483.2140502929688	52.68386459350586	1447.979614257812	-178.8635711669922	1.268141388893127	1021.737731933594	-487.5594787597656	2.912811279296875	1002.883605957031	-189.9289703369141	51.621337890625	966.3116455078124	-474.3324279785156	-511.5851440429688	434.580810546875	-400.0008544921875	58.51042175292969	955.47509765625	-218.9471893310547	-93.02545166015624	918.1936645507812	-497.2934875488281	-76.6257095336914	894.2714233398438	-183.9353332519531	-91.82695770263672	1059.372680664062	-341.4482421875	-42.30535888671875	660.0927734375	-517.658203125	-367.8031616210938	488.3337097167969	-492.4398498535156	-121.6273727416992	682.0406494140625	-519.2884521484375	-71.5025863647461	560.9760131835938	-511.3023071289062	299.9103088378906	118.7561950683594	-217.0093688964844	-276.9349975585938	524.9370727539062	-513.1393432617188	-152.3703308105469	586.5392456054688	-501.2093811035156	130.7080383300781	659.6470336914062	-180.1851501464844	-544.8108520507812	195.6288604736328	-466.8585205078125	54.38578033447266	635.3777465820312	-178.3968963623047	157.3408508300781	568.7137451171875	-218.7953948974609	80.3961181640625	546.6301879882812	-208.4490051269531	-139.1901092529297	533.5097045898438	-512.2089233398438	122.5217742919922	525.2149047851562	-208.0714416503906	-249.1520233154297	449.9740600585938	-516.8524780273438	-342.46337890625	415.2217102050781	-503.8997192382812	172.1804962158203	409.4728698730469	-210.4023590087891	-569.2914428710938	269.0708312988281	-502.9479064941406	93.70284271240234	398.7703552246094	-196.4745483398438	-532.2626953125	419.4530944824219	-367.1248168945312	184.0737457275391	308.4574279785156	-223.0184478759766	105.7186965942383	301.418212890625	-210.9174041748047	-514.0875244140625	389.1044311523438	-464.3988342285156	172.1145782470703	116.5687789916992	-249.2180328369141	356.2121276855469	160.8509368896484	-269.3702392578125	121.5309219360352	77.24327087402344	-309.7306213378906	146.1855163574219	59.3384895324707	-338.6128845214844	129.9279632568359	49.97129058837891	-289.8549194335938	-546.3199462890625	437.9098815917969	-414.1339721679688
